<?xml version="1.0" standalone="no"?>
<!DOCTYPE svg PUBLIC "-//W3C//DTD SVG 20010904//EN"
 "http://www.w3.org/TR/2001/REC-SVG-20010904/DTD/svg10.dtd">
<svg version="1.0" xmlns="http://www.w3.org/2000/svg"
 width="1024.000000pt" height="1024.000000pt" viewBox="0 0 1024.000000 1024.000000"
 preserveAspectRatio="xMidYMid meet">

<g transform="translate(0.000000,1024.000000) scale(0.100000,-0.100000)"
fill="#000000" stroke="none">
<path d="M4840 10234 c-428 -31 -758 -86 -1120 -189 -890 -251 -1709 -752
-2339 -1428 -968 -1040 -1459 -2409 -1371 -3817 80 -1257 609 -2423 1502
-3307 301 -298 563 -507 896 -715 1661 -1036 3763 -1036 5424 0 774 483 1421
1186 1842 2002 654 1267 745 2773 249 4115 -567 1534 -1846 2714 -3416 3154
-289 81 -576 135 -882 167 -142 14 -666 26 -785 18z m750 -838 c1207 -141
2263 -747 2980 -1711 470 -630 741 -1329 832 -2145 19 -175 16 -698 -5 -882
-118 -998 -540 -1879 -1231 -2572 -706 -708 -1616 -1140 -2626 -1248 -165 -17
-675 -17 -840 0 -1263 135 -2359 774 -3092 1801 -375 525 -629 1148 -732 1792
-43 270 -51 369 -50 694 0 331 11 468 60 747 218 1252 997 2354 2114 2990 517
294 1125 487 1700 537 69 6 143 13 165 15 94 9 598 -4 725 -18z"/>
<path d="M5033 8174 c-22 -11 -335 -379 -960 -1131 -510 -612 -938 -1131 -950
-1152 -29 -48 -38 -115 -23 -171 15 -57 80 -124 135 -139 26 -7 176 -11 433
-11 l392 0 0 -1675 c0 -1492 2 -1680 16 -1713 19 -47 58 -88 106 -113 36 -18
71 -19 938 -19 867 0 902 1 938 19 48 25 87 66 106 113 14 33 16 221 16 1713
l0 1675 393 0 c256 0 406 4 432 11 55 15 120 82 135 139 15 56 6 123 -23 171
-12 21 -440 540 -950 1153 -664 797 -938 1119 -962 1130 -42 20 -131 20 -172
0z"/>
</g>
</svg>
